<svg xmlns="http://www.w3.org/2000/svg"  viewBox="0 0 100 100" width="100px" height="100px"><path d="M35.644,94.969c-6.003,0-10.927-4.509-11.455-10.488l-3.551-49.724c-0.536-0.395-1.014-0.875-1.411-1.426 c-1.219-1.689-1.553-3.88-0.891-5.859l0.347-1.042c1.589-4.77,5.583-8.222,10.424-9.15c2.533-1.813,5.511-2.914,8.618-3.183 c1.322-2.981,4.31-5.065,7.775-5.065h13c3.465,0,6.453,2.084,7.775,5.065c3.107,0.27,6.085,1.37,8.618,3.183 c4.841,0.928,8.834,4.38,10.425,9.15l0.349,1.047c0.66,1.974,0.326,4.165-0.895,5.857c-0.396,0.55-0.874,1.029-1.409,1.423 L79.82,84.373c-0.535,6.077-5.461,10.596-11.464,10.596H35.644z" opacity=".35"/><path fill="#f2f2f2" d="M33.644,92.969c-6.003,0-10.927-4.509-11.455-10.488l-3.551-49.724 c-0.536-0.395-1.014-0.875-1.411-1.426c-1.219-1.689-1.553-3.88-0.891-5.859l0.347-1.042c1.589-4.77,5.583-8.222,10.424-9.15 c2.533-1.813,5.511-2.914,8.618-3.183c1.322-2.981,4.31-5.065,7.775-5.065h13c3.465,0,6.453,2.084,7.775,5.065 c3.107,0.27,6.085,1.37,8.618,3.183c4.841,0.928,8.834,4.38,10.425,9.15l0.349,1.047c0.66,1.974,0.326,4.165-0.895,5.857 c-0.396,0.55-0.874,1.029-1.409,1.423L77.82,82.373c-0.535,6.077-5.461,10.596-11.464,10.596H33.644z"/><path fill="#40396e" d="M60,21.031H40v-5.5c0-1.93,1.57-3.5,3.5-3.5h13c1.93,0,3.5,1.57,3.5,3.5V21.031z M43,18.031h14v-2.5 c0-0.276-0.224-0.5-0.5-0.5h-13c-0.276,0-0.5,0.224-0.5,0.5V18.031z"/><path fill="#9aa2e6" d="M77.5,27.531l-0.349-1.046c-0.986-2.959-3.755-4.954-6.874-4.954h0v0c-2.026-1.926-4.714-3-7.509-3 H37.231c-2.795,0-5.484,1.074-7.509,3l0,0h0c-3.119,0-5.887,1.996-6.874,4.954L22.5,27.531H77.5z"/><path fill="#707cc0" d="M24.795,26l3.887,54.445C28.911,83.023,31.07,85,33.659,85h32.683c2.588,0,4.748-1.977,4.976-4.555 L75.205,26H24.795z"/><path fill="#40396e" d="M37.046,80.964c-0.799,0-1.463-0.63-1.498-1.437l-1.897-44.845 c-0.035-0.828,0.607-1.527,1.435-1.562c0.822-0.038,1.527,0.607,1.562,1.435L38.546,79.4c0.035,0.828-0.607,1.527-1.435,1.562 C37.089,80.963,37.068,80.964,37.046,80.964z"/><path fill="#40396e" d="M45.691,80.964c-0.818,0-1.488-0.658-1.5-1.479L43.56,34.64c-0.012-0.828,0.65-1.509,1.479-1.521 c0.781-0.016,1.509,0.65,1.521,1.479l0.632,44.845c0.012,0.828-0.65,1.509-1.479,1.521C45.706,80.964,45.699,80.964,45.691,80.964z"/><path fill="#40396e" d="M54.337,80.964c-0.007,0-0.015,0-0.021,0c-0.829-0.012-1.491-0.693-1.479-1.521l0.632-44.845 c0.012-0.829,0.667-1.491,1.521-1.479c0.829,0.012,1.491,0.693,1.479,1.521l-0.632,44.845 C55.825,80.306,55.155,80.964,54.337,80.964z"/><path fill="#40396e" d="M62.982,80.964c-0.021,0-0.043,0-0.064-0.001c-0.828-0.035-1.47-0.734-1.435-1.562l1.897-44.845 c0.036-0.828,0.737-1.471,1.562-1.435c0.828,0.035,1.47,0.734,1.435,1.562l-1.897,44.845 C64.445,80.333,63.781,80.964,62.982,80.964z"/><path fill="#40396e" d="M66.356,87.969H33.644c-3.393,0-6.176-2.548-6.475-5.927l-3.785-53.01H22.5 c-0.482,0-0.935-0.232-1.217-0.623c-0.282-0.391-0.359-0.894-0.206-1.351l0.349-1.046c1.128-3.386,4.176-5.72,7.695-5.959 c2.254-1.952,5.112-3.021,8.11-3.021h25.537c2.999,0,5.856,1.068,8.11,3.021c3.52,0.24,6.567,2.574,7.695,5.959l0.349,1.046 c0.153,0.457,0.076,0.96-0.206,1.351c-0.282,0.391-0.735,0.623-1.217,0.623h-0.884l-3.783,52.985 C72.533,85.421,69.749,87.969,66.356,87.969z M24.674,26.031h0.106c0.787,0,1.44,0.608,1.496,1.393l3.883,54.378 c0.159,1.794,1.658,3.166,3.484,3.166h32.713c1.827,0,3.326-1.372,3.486-3.191l3.881-54.354c0.056-0.785,0.709-1.393,1.496-1.393 h0.106c-0.992-1.828-2.914-3-5.048-3c-0.385,0-0.755-0.148-1.034-0.413c-1.755-1.668-4.055-2.587-6.476-2.587H37.231 c-2.421,0-4.721,0.919-6.476,2.587c-0.279,0.265-0.649,0.413-1.034,0.413C27.588,23.031,25.667,24.204,24.674,26.031z"/></svg>